<?xml version="1.0" standalone="no"?>
<!DOCTYPE svg PUBLIC "-//W3C//DTD SVG 20010904//EN"
 "http://www.w3.org/TR/2001/REC-SVG-20010904/DTD/svg10.dtd">
<svg version="1.0" xmlns="http://www.w3.org/2000/svg"
 width="79.000000pt" height="79.000000pt" viewBox="0 0 79.000000 79.000000"
 preserveAspectRatio="xMidYMid meet">
<metadata>
Created by potrace 1.11, written by Peter Selinger 2001-2013
</metadata>
<g transform="translate(0.000000,79.000000) scale(0.100000,-0.100000)"
fill="#000000" stroke="none">
<path d="M30 690 l0 -70 369 0 369 0 4 66 c1 36 1 68 -1 70 -2 2 -170 4 -373
4 l-368 0 0 -70z"/>
<path d="M30 370 l0 -230 110 0 110 0 2 133 c2 72 1 174 -1 225 -2 68 0 92 9
92 9 0 11 -15 7 -57 -6 -56 -5 -57 8 -26 8 18 28 41 44 51 17 10 29 21 27 23
-2 2 22 4 54 4 32 0 56 -3 54 -6 -2 -3 8 -11 21 -17 14 -7 34 -26 44 -43 l20
-32 4 49 c2 27 4 9 3 -41 0 -49 0 -150 2 -222 l2 -133 110 0 110 0 0 230 0
230 -370 0 -370 0 0 -230z"/>
<path d="M390 550 c0 -5 5 -10 10 -10 6 0 10 5 10 10 0 6 -4 10 -10 10 -5 0
-10 -4 -10 -10z"/>
<path d="M340 536 c0 -9 5 -16 10 -16 6 0 10 4 10 9 0 6 -4 13 -10 16 -5 3
-10 -1 -10 -9z"/>
<path d="M450 534 c0 -8 5 -12 10 -9 6 3 10 10 10 16 0 5 -4 9 -10 9 -5 0 -10
-7 -10 -16z"/>
<path d="M290 500 c0 -5 5 -10 11 -10 5 0 7 5 4 10 -3 6 -8 10 -11 10 -2 0 -4
-4 -4 -10z"/>
<path d="M497 503 c-4 -3 -7 -11 -7 -17 0 -6 5 -5 12 2 6 6 9 14 7 17 -3 3 -9
2 -12 -2z"/>
<path d="M278 443 c7 -3 16 -2 19 1 4 3 -2 6 -13 5 -11 0 -14 -3 -6 -6z"/>
<path d="M378 433 c-25 -29 -33 -47 -17 -38 24 15 49 39 49 47 0 14 -16 9 -32
-9z"/>
<path d="M508 443 c7 -3 16 -2 19 1 4 3 -2 6 -13 5 -11 0 -14 -3 -6 -6z"/>
<path d="M264 387 c3 -10 6 -72 6 -138 l0 -119 35 0 35 0 0 85 c0 50 4 85 10
85 6 0 10 -35 10 -85 l0 -85 40 0 40 0 0 85 c0 50 4 85 10 85 6 0 10 -35 10
-85 l0 -85 40 0 40 0 0 138 0 137 -20 -32 c-56 -92 -176 -94 -239 -3 -13 19
-21 27 -17 17z"/>
<path d="M390 381 c0 -12 5 -21 10 -21 6 0 10 6 10 14 0 8 -4 18 -10 21 -5 3
-10 -3 -10 -14z"/>
<path d="M295 380 c-3 -5 -2 -10 4 -10 5 0 13 5 16 10 3 6 2 10 -4 10 -5 0
-13 -4 -16 -10z"/>
<path d="M485 380 c3 -5 11 -10 16 -10 6 0 7 5 4 10 -3 6 -11 10 -16 10 -6 0
-7 -4 -4 -10z"/>
<path d="M335 340 c-3 -5 -2 -10 4 -10 5 0 13 5 16 10 3 6 2 10 -4 10 -5 0
-13 -4 -16 -10z"/>
<path d="M450 340 c0 -5 5 -10 11 -10 5 0 7 5 4 10 -3 6 -8 10 -11 10 -2 0 -4
-4 -4 -10z"/>
<path d="M390 320 c0 -5 5 -10 10 -10 6 0 10 5 10 10 0 6 -4 10 -10 10 -5 0
-10 -4 -10 -10z"/>
<path d="M30 55 l0 -55 369 0 369 0 4 55 3 55 -372 0 -373 0 0 -55z"/>
</g>
</svg>
